<?xml version="1.0" encoding="UTF-8"?>
<svg classes="gsndiagram" viewBox="0 0 586 505" xmlns="http://www.w3.org/2000/svg">
<symbol id="module_icon">
<rect fill="lightgrey" height="5" stroke="black" stroke-width="1" width="10" x="0" y="0"/>
<rect fill="lightgrey" height="10" stroke="black" stroke-width="1" width="20" x="0" y="5"/>
</symbol>
<marker id="composite_arrow" markerHeight="9" markerUnits="userSpaceOnUse" markerWidth="10" orient="auto-start-reverse" refX="0" refY="4.5">
<polyline fill="none" points="0 0, 6 4.5, 0 9" stroke="black" stroke-width="1"/>
<polyline fill="none" points="4 0, 10 4.5, 4 9" stroke="black" stroke-width="1"/>
<polyline fill="none" points="0 4.5, 10 4.5" stroke="black" stroke-width="1"/>
</marker>
<marker id="supportedby_arrow" markerHeight="9" markerUnits="userSpaceOnUse" markerWidth="10" orient="auto-start-reverse" refX="0" refY="4.5">
<polyline fill="black" points="0 0, 10 4.5, 0 9"/>
</marker>
<marker id="incontextof_arrow" markerHeight="9" markerUnits="userSpaceOnUse" markerWidth="10" orient="auto-start-reverse" refX="0" refY="4.5">
<polyline fill="none" points="0 0, 10 4.5, 0 9, 0 0" stroke="black" stroke-width="1"/>
</marker>
<g class="gsnelem gsngoal gsn_module___gsn2x_complete_ch_yaml" id="node_G1">
<title>
G1
</title>
<path class="border" d="M307,34 L411,34 L411,80 L307,80 z" fill="none" stroke="black" stroke-width="1"/>
<text font-family="Arial" font-size="12" font-weight="bold" x="314" y="53">
G1
</text>
<text font-family="Arial" font-size="12" x="314" y="70">
目标
</text>
</g>
<g class="gsnelem gsnasmp gsn_module___gsn2x_complete_ch_yaml" id="node_A1">
<title>
A1
</title>
<ellipse class="border" cx="482" cy="57" fill="none" rx="31" ry="37" stroke="black" stroke-width="1"/>
<text font-family="Arial" font-size="12" font-weight="bold" x="470" y="48">
A1
</text>
<text font-family="Arial" font-size="12" x="470" y="65">
假设 1
</text>
<text font-family="Arial" font-size="12" font-weight="bold" x="508" y="89">
A
</text>
</g>
<g class="gsnelem gsnstgy gsn_module___gsn2x_complete_ch_yaml" id="node_S1">
<title>
S1
</title>
<path class="border" d="M299,134 L433,134 L419,180 L285,180 z" fill="none" stroke="black" stroke-width="1"/>
<text font-family="Arial" font-size="12" font-weight="bold" x="307" y="153">
S1
</text>
<text font-family="Arial" font-size="12" x="307" y="170">
分解策略
</text>
</g>
<g class="gsnelem gsnctxt gsn_module___gsn2x_complete_ch_yaml" id="node_C1">
<title>
C1
</title>
<path class="border" d="M30,234 L134,234 C144,234,144,280,134,280 L30,280 C20,280,20,234,30,234" fill="none" stroke="black" stroke-width="1"/>
<text font-family="Arial" font-size="12" font-weight="bold" x="37" y="253">
C1
</text>
<text font-family="Arial" font-size="12" x="37" y="270">
背景 1
</text>
</g>
<g class="gsnelem gsngoal gsn_module___gsn2x_complete_ch_yaml" id="node_G3">
<title>
G3
</title>
<path class="border" d="M184,234 L288,234 L288,280 L184,280 z" fill="none" stroke="black" stroke-width="1"/>
<text font-family="Arial" font-size="12" font-weight="bold" x="191" y="253">
G3
</text>
<text font-family="Arial" font-size="12" x="191" y="270">
子目标 2
</text>
</g>
<g class="gsnelem gsnjust gsn_module___gsn2x_complete_ch_yaml" id="node_J1">
<title>
J1
</title>
<ellipse class="border" cx="359" cy="257" fill="none" rx="31" ry="37" stroke="black" stroke-width="1"/>
<text font-family="Arial" font-size="12" font-weight="bold" x="347" y="248">
J1
</text>
<text font-family="Arial" font-size="12" x="347" y="265">
理由 1
</text>
<text font-family="Arial" font-size="12" font-weight="bold" x="385" y="289">
J
</text>
</g>
<g class="gsnelem gsngoal gsn_module___gsn2x_complete_ch_yaml gsn_undeveloped" id="node_G2">
<title>
G2
</title>
<path class="border" d="M430,231 L534,231 L534,283 L430,283 z" fill="none" stroke="black" stroke-width="1"/>
<text font-family="Arial" font-size="12" font-weight="bold" x="437" y="250">
G2
</text>
<text font-family="Arial" font-size="12" x="437" y="267">
子目标 1
</text>
<path d="M482,283 l5,5 l-5,5 l-5,-5 z" fill="none" stroke="black" stroke-width="1"/>
</g>
<a href="https://github.com/jonasthewolf/gsn2x">
<g class="gsnelem gsnsltn gsn_module___gsn2x_complete_ch_yaml" id="node_Sn1"/>
<title>
Sn1
</title>
<ellipse class="border" cx="236" cy="375" fill="none" rx="41" ry="41" stroke="black" stroke-width="1"/>
<text font-family="Arial" font-size="12" font-weight="bold" x="214" y="366">
Sn1
</text>
<text font-family="Arial" font-size="12" x="214" y="383">
解决方案 1
</text>
</a>
<path class="gsnedge gsninctxt" d="M411,57 C411,57,421,57,441,57" fill="none" marker-end="url(#incontextof_arrow)" stroke="black" stroke-width="1"/>
<path class="gsnedge gsninspby" d="M359,80 C359,110,359,104,359,124" fill="none" marker-end="url(#supportedby_arrow)" stroke="black" stroke-width="1"/>
<path class="gsnedge gsninctxt" d="M430,257 C430,257,420,257,400,257" fill="none" marker-end="url(#incontextof_arrow)" stroke="black" stroke-width="1"/>
<path class="gsnedge gsninctxt" d="M288,257 C288,257,298,257,318,257" fill="none" marker-end="url(#incontextof_arrow)" stroke="black" stroke-width="1"/>
<path class="gsnedge gsninctxt" d="M184,257 C184,257,174,257,154,257" fill="none" marker-end="url(#incontextof_arrow)" stroke="black" stroke-width="1"/>
<path class="gsnedge gsninspby" d="M236,280 C236,310,236,304,236,324" fill="none" marker-end="url(#supportedby_arrow)" stroke="black" stroke-width="1"/>
<path class="gsnedge gsninspby" d="M359,180 C359,210,482,201,482,221" fill="none" marker-end="url(#supportedby_arrow)" stroke="black" stroke-width="1"/>
<path class="gsnedge gsninspby" d="M359,180 C359,210,236,204,236,224" fill="none" marker-end="url(#supportedby_arrow)" stroke="black" stroke-width="1"/>
<g class="gsnmodule" id="node_gsn_module">
<title>
Module Information
</title>
<text font-family="Arial" font-size="12" x="251" y="471">
Module: __gsn2x_complete_ch_yaml
</text>
<text font-family="Arial" font-size="12" x="251" y="485">
Generated on: 2023-05-31 12:16:46.044274400 UTC
</text>
</g>
</svg>