<?xml version="1.0" encoding="UTF-8"?>
<svg classes="gsndiagram" viewBox="0 0 695 515" xmlns="http://www.w3.org/2000/svg">
<symbol id="module_icon">
<rect fill="lightgrey" height="5" stroke="black" stroke-width="1" width="10" x="0" y="0"/>
<rect fill="lightgrey" height="10" stroke="black" stroke-width="1" width="20" x="0" y="5"/>
</symbol>
<marker id="composite_arrow" markerHeight="9" markerUnits="userSpaceOnUse" markerWidth="10" orient="auto-start-reverse" refX="0" refY="4.5">
<polyline fill="none" points="0 0, 6 4.5, 0 9" stroke="black" stroke-width="1"/>
<polyline fill="none" points="4 0, 10 4.5, 4 9" stroke="black" stroke-width="1"/>
<polyline fill="none" points="0 4.5, 10 4.5" stroke="black" stroke-width="1"/>
</marker>
<marker id="supportedby_arrow" markerHeight="9" markerUnits="userSpaceOnUse" markerWidth="10" orient="auto-start-reverse" refX="0" refY="4.5">
<polyline fill="black" points="0 0, 10 4.5, 0 9"/>
</marker>
<marker id="incontextof_arrow" markerHeight="9" markerUnits="userSpaceOnUse" markerWidth="10" orient="auto-start-reverse" refX="0" refY="4.5">
<polyline fill="none" points="0 0, 10 4.5, 0 9, 0 0" stroke="black" stroke-width="1"/>
</marker>
<g class="gsnelem gsngoal additionalclass1 additionalclass2 gsn_module___gsn2x_complete_yaml" id="node_G1">
<title>
G1
</title>
<path class="border" d="M347,34 L451,34 L451,80 L347,80 z" fill="none" stroke="black" stroke-width="1"/>
<text font-family="Arial" font-size="12" font-weight="bold" x="354" y="53">
G1
</text>
<text font-family="Arial" font-size="12" x="354" y="70">
Main Goal
</text>
</g>
<g class="gsnelem gsnasmp gsn_module___gsn2x_complete_yaml" id="node_A1">
<title>
A1
</title>
<ellipse class="border" cx="559" cy="57" fill="none" rx="68" ry="37" stroke="black" stroke-width="1"/>
<text font-family="Arial" font-size="12" font-weight="bold" x="521" y="48">
A1
</text>
<text font-family="Arial" font-size="12" x="521" y="65">
Assumption 1
</text>
<text font-family="Arial" font-size="12" font-weight="bold" x="622" y="89">
A
</text>
</g>
<g class="gsnelem gsnstgy gsn_module___gsn2x_complete_yaml" id="node_S1">
<title>
S1
</title>
<path class="border" d="M339,134 L473,134 L459,180 L325,180 z" fill="none" stroke="black" stroke-width="1"/>
<text font-family="Arial" font-size="12" font-weight="bold" x="347" y="153">
S1
</text>
<text font-family="Arial" font-size="12" x="347" y="170">
Strategy 1
</text>
</g>
<g class="gsnelem gsnctxt gsn_module___gsn2x_complete_yaml" id="node_C1">
<title>
C1
</title>
<path class="border" d="M30,234 L134,234 C144,234,144,280,134,280 L30,280 C20,280,20,234,30,234" fill="none" stroke="black" stroke-width="1"/>
<text font-family="Arial" font-size="12" font-weight="bold" x="37" y="253">
C1
</text>
<text font-family="Arial" font-size="12" x="37" y="270">
Context 1
</text>
</g>
<g class="gsnelem gsngoal gsn_module___gsn2x_complete_yaml" id="node_G3">
<title>
G3
</title>
<path class="border" d="M184,234 L288,234 L288,280 L184,280 z" fill="none" stroke="black" stroke-width="1"/>
<text font-family="Arial" font-size="12" font-weight="bold" x="191" y="253">
G3
</text>
<text font-family="Arial" font-size="12" x="191" y="270">
Subgoal 2
</text>
</g>
<g class="gsnelem gsnjust gsn_module___gsn2x_complete_yaml" id="node_J1">
<title>
J1
</title>
<ellipse class="border" cx="399" cy="257" fill="none" rx="71" ry="37" stroke="black" stroke-width="1"/>
<text font-family="Arial" font-size="12" font-weight="bold" x="359" y="248">
J1
</text>
<text font-family="Arial" font-size="12" x="359" y="265">
Justification 1
</text>
<text font-family="Arial" font-size="12" font-weight="bold" x="465" y="289">
J
</text>
</g>
<g class="gsnelem gsngoal gsn_module___gsn2x_complete_yaml gsn_undeveloped" id="node_G2">
<title>
G2
</title>
<path class="border" d="M510,231 L614,231 L614,283 L510,283 z" fill="none" stroke="black" stroke-width="1"/>
<text font-family="Arial" font-size="12" font-weight="bold" x="517" y="250">
G2
</text>
<text font-family="Arial" font-size="12" x="517" y="267">
Subgoal 1
</text>
<path d="M562,283 l5,5 l-5,5 l-5,-5 z" fill="none" stroke="black" stroke-width="1"/>
</g>
<a href="https://github.com/jonasthewolf/gsn2x">
<g class="gsnelem gsnsltn gsn_module___gsn2x_complete_yaml" id="node_Sn1"/>
<title>
Sn1
</title>
<ellipse class="border" cx="236" cy="380" fill="none" rx="46" ry="46" stroke="black" stroke-width="1"/>
<text font-family="Arial" font-size="12" font-weight="bold" x="208" y="371">
Sn1
</text>
<text font-family="Arial" font-size="12" x="208" y="388">
Solution 1
</text>
</a>
<path class="gsnedge gsninctxt" d="M451,57 C451,57,461,57,481,57" fill="none" marker-end="url(#incontextof_arrow)" stroke="black" stroke-width="1"/>
<path class="gsnedge gsninspby" d="M399,80 C399,110,399,104,399,124" fill="none" marker-end="url(#supportedby_arrow)" stroke="black" stroke-width="1"/>
<path class="gsnedge gsninctxt" d="M510,257 C510,257,500,257,480,257" fill="none" marker-end="url(#incontextof_arrow)" stroke="black" stroke-width="1"/>
<path class="gsnedge gsninctxt" d="M288,257 C288,257,298,257,318,257" fill="none" marker-end="url(#incontextof_arrow)" stroke="black" stroke-width="1"/>
<path class="gsnedge gsninctxt" d="M184,257 C184,257,174,257,154,257" fill="none" marker-end="url(#incontextof_arrow)" stroke="black" stroke-width="1"/>
<path class="gsnedge gsninspby" d="M236,280 C236,310,236,304,236,324" fill="none" marker-end="url(#supportedby_arrow)" stroke="black" stroke-width="1"/>
<path class="gsnedge gsninspby" d="M399,180 C399,210,562,201,562,221" fill="none" marker-end="url(#supportedby_arrow)" stroke="black" stroke-width="1"/>
<path class="gsnedge gsninspby" d="M399,180 C399,210,236,204,236,224" fill="none" marker-end="url(#supportedby_arrow)" stroke="black" stroke-width="1"/>
<g class="gsnmodule" id="node_gsn_module">
<title>
Module Information
</title>
<text font-family="Arial" font-size="12" x="360" y="481">
Module: __gsn2x_complete_yaml
</text>
<text font-family="Arial" font-size="12" x="360" y="495">
Generated on: 2024-08-16 09:54:31.164597500 UTC
</text>
</g>
</svg>